<svg width="17" height="18" viewBox="0 0 17 18" fill="none" xmlns="http://www.w3.org/2000/svg">
<path d="M13.8088 4.81455L11.1948 2.20049C11.1212 2.12696 11.0215 2.08563 10.9175 2.08563H3.59816C3.38161 2.08563 3.20605 2.26119 3.20605 2.47774V15.0775C3.20605 15.2941 3.38161 15.4696 3.59816 15.4696H13.5316C13.7481 15.4696 13.9237 15.2941 13.9237 15.0775V5.0918C13.9237 4.98781 13.8824 4.88809 13.8088 4.81455ZM11.3096 3.42437L12.585 4.69969H11.3096V3.42437ZM3.99027 14.6854V2.86985H10.5254V5.0918C10.5254 5.30835 10.701 5.48391 10.9175 5.48391H13.1395V14.6854H3.99027Z" fill="white"/>
<path d="M11.9631 13.0647H8.82619C8.60964 13.0647 8.43408 13.2402 8.43408 13.4568C8.43408 13.6733 8.60964 13.8489 8.82619 13.8489H11.9631C12.1796 13.8489 12.3552 13.6733 12.3552 13.4568C12.3552 13.2402 12.1796 13.0647 11.9631 13.0647Z" fill="white"/>
<path d="M11.9631 11.4962H8.82619C8.60964 11.4962 8.43408 11.6718 8.43408 11.8884C8.43408 12.1049 8.60964 12.2805 8.82619 12.2805H11.9631C12.1796 12.2805 12.3552 12.1049 12.3552 11.8884C12.3552 11.6718 12.1796 11.4962 11.9631 11.4962Z" fill="white"/>
<path d="M9.08791 7.31374H9.34931V7.57514C9.34931 7.79169 9.52487 7.96725 9.74142 7.96725C9.95797 7.96725 10.1335 7.79169 10.1335 7.57514V7.31374H10.3949C10.6115 7.31374 10.787 7.13818 10.787 6.92163C10.787 6.70508 10.6115 6.52952 10.3949 6.52952H10.1335V6.26812C10.1335 6.05157 9.95797 5.87601 9.74142 5.87601C9.52487 5.87601 9.34931 6.05157 9.34931 6.26812V6.52952H9.08791C8.87136 6.52952 8.6958 6.70508 8.6958 6.92163C8.6958 7.13818 8.87136 7.31374 9.08791 7.31374Z" fill="white"/>
<path d="M8.73379 9.65867L7.2748 5.79264C7.27345 5.78903 7.27203 5.78548 7.27057 5.78189C7.19607 5.60082 7.02153 5.48392 6.82576 5.48392H6.82524C6.62929 5.48413 6.45475 5.60145 6.38056 5.78283C6.37936 5.78579 6.37818 5.78874 6.37706 5.7917L4.90469 9.65755C4.82761 9.85993 4.92919 10.0865 5.13157 10.1635C5.1775 10.181 5.22465 10.1893 5.27105 10.1893C5.42905 10.1893 5.57797 10.0931 5.63757 9.93665L5.90807 9.22641H7.73245L8.00007 9.93555C8.07654 10.1382 8.30276 10.2405 8.50537 10.1639C8.70799 10.0875 8.81025 9.86129 8.73379 9.65867ZM6.20678 8.44219L6.82448 6.82038L7.43654 8.44219H6.20678Z" fill="white"/>
</svg>
