<svg width="16" height="16" viewBox="0 0 16 16" fill="none" xmlns="http://www.w3.org/2000/svg">
<g clip-path="url(#clip0)">
<path d="M12.1796 0.620758H3.82077C2.21824 0.620758 0.914551 1.92445 0.914551 3.52698V8.01561C0.914551 9.29433 1.75409 10.4081 2.97063 10.7645L4.37423 12.1682C4.45218 12.2461 4.5577 12.2898 4.66787 12.2898C4.77794 12.2898 4.88357 12.2461 4.96142 12.1682L6.249 10.8805H12.1796C13.7821 10.8805 15.0858 9.57684 15.0858 7.97431V3.52698C15.0858 1.92445 13.7821 0.620758 12.1796 0.620758ZM14.2555 7.97431C14.2555 9.11896 13.3243 10.0502 12.1796 10.0502H6.07709C5.96702 10.0502 5.86139 10.094 5.78355 10.1718L4.66787 11.2875L3.47966 10.0993C3.42635 10.046 3.35954 10.0081 3.28634 9.98996C2.3788 9.7641 1.7449 8.95224 1.7449 8.01561V3.52698C1.7449 2.38233 2.67612 1.45111 3.82077 1.45111H12.1796C13.3243 1.45111 14.2555 2.38233 14.2555 3.52698V7.97431Z" fill="white"/>
<path d="M10.6362 4.60165H5.3639C5.13459 4.60165 4.94873 4.78762 4.94873 5.01683C4.94873 5.24615 5.13459 5.432 5.3639 5.432H10.6362C10.8655 5.432 11.0514 5.24615 11.0514 5.01683C11.0514 4.78762 10.8655 4.60165 10.6362 4.60165Z" fill="white"/>
<path d="M10.6362 6.06926H5.3639C5.13459 6.06926 4.94873 6.25511 4.94873 6.48443C4.94873 6.71375 5.13459 6.89961 5.3639 6.89961H10.6362C10.8655 6.89961 11.0514 6.71375 11.0514 6.48443C11.0514 6.25511 10.8655 6.06926 10.6362 6.06926Z" fill="white"/>
</g>
<defs>
<clipPath id="clip0">
<rect width="14.1713" height="14.1713" fill="white" transform="translate(0.914551 0.872925)"/>
</clipPath>
</defs>
</svg>
